<svg width="357" height="113" viewBox="0 0 357 113" fill="none" xmlns="http://www.w3.org/2000/svg">
<path fill-rule="evenodd" clip-rule="evenodd" d="M84.0078 80.4114L55.2683 97.0041V33.1856L84.0078 16.593V80.4114Z" fill="white"/>
<path fill-rule="evenodd" clip-rule="evenodd" d="M55.2683 97.1856L81.7968 112.502L110.537 95.9092L55.2683 64L0 95.9092L28.7398 112.502L55.2683 97.1856Z" fill="white"/>
<path fill-rule="evenodd" clip-rule="evenodd" d="M55.2683 0L84.0078 16.593L28.7395 48.5018L0 31.9092L55.2683 0Z" fill="white"/>
<path fill-rule="evenodd" clip-rule="evenodd" d="M0.000366211 95.8184L28.7398 112.411V48.593L0.000366211 32V95.8184Z" fill="white"/>
<path d="M138.72 68.89C139.83 68.89 140.895 68.695 141.915 68.305L137.55 64.57L141.96 59.62L146.235 63.49C146.595 62.56 146.775 61.54 146.775 60.43V60.34C146.775 59.2 146.58 58.12 146.19 57.1C145.8 56.05 145.245 55.135 144.525 54.355C143.805 53.545 142.935 52.915 141.915 52.465C140.925 51.985 139.83 51.745 138.63 51.745C137.43 51.745 136.335 51.985 135.345 52.465C134.385 52.915 133.545 53.53 132.825 54.31C132.135 55.09 131.595 55.99 131.205 57.01C130.845 58.03 130.665 59.11 130.665 60.25V60.34C130.665 61.48 130.86 62.575 131.25 63.625C131.64 64.645 132.18 65.545 132.87 66.325C133.59 67.105 134.445 67.735 135.435 68.215C136.425 68.665 137.52 68.89 138.72 68.89ZM148.215 73.84C146.865 74.71 145.38 75.4 143.76 75.91C142.14 76.39 140.43 76.63 138.63 76.63C136.2 76.63 133.95 76.21 131.88 75.37C129.81 74.5 128.025 73.33 126.525 71.86C125.025 70.39 123.84 68.665 122.97 66.685C122.13 64.705 121.71 62.59 121.71 60.34V60.25C121.71 58 122.13 55.885 122.97 53.905C123.84 51.895 125.04 50.155 126.57 48.685C128.1 47.185 129.9 46.015 131.97 45.175C134.04 44.305 136.29 43.87 138.72 43.87C141.15 43.87 143.4 44.305 145.47 45.175C147.54 46.015 149.325 47.17 150.825 48.64C152.325 50.11 153.495 51.835 154.335 53.815C155.205 55.795 155.64 57.91 155.64 60.16V60.25C155.64 61.93 155.4 63.535 154.92 65.065C154.44 66.595 153.75 68.005 152.85 69.295L156.09 72.04L151.68 76.945L148.215 73.84ZM174.362 76.585C172.112 76.585 170.087 76.3 168.287 75.73C166.487 75.16 164.957 74.29 163.697 73.12C162.437 71.92 161.462 70.42 160.772 68.62C160.112 66.79 159.782 64.645 159.782 62.185V44.5H168.647V62.005C168.647 64.285 169.172 65.98 170.222 67.09C171.272 68.17 172.682 68.71 174.452 68.71C176.222 68.71 177.632 68.185 178.682 67.135C179.732 66.085 180.257 64.45 180.257 62.23V44.5H189.122V61.96C189.122 64.51 188.762 66.715 188.042 68.575C187.352 70.405 186.362 71.92 185.072 73.12C183.812 74.29 182.267 75.16 180.437 75.73C178.637 76.3 176.612 76.585 174.362 76.585ZM194.289 44.5H219.624V51.925H202.929V56.695H218.049V63.58H202.929V68.575H219.849V76H194.289V44.5ZM224.304 44.5H232.449L245.409 61.15V44.5H254.049V76H246.399L232.944 58.72V76H224.304V44.5ZM267.331 52.15H257.881V44.5H285.511V52.15H276.061V76H267.331V52.15ZM305.273 68.755C306.473 68.755 307.568 68.53 308.558 68.08C309.548 67.63 310.388 67.03 311.078 66.28C311.768 65.5 312.308 64.6 312.698 63.58C313.088 62.56 313.283 61.48 313.283 60.34V60.25C313.283 59.11 313.088 58.03 312.698 57.01C312.308 55.99 311.753 55.09 311.033 54.31C310.313 53.53 309.458 52.915 308.468 52.465C307.478 51.985 306.383 51.745 305.183 51.745C303.983 51.745 302.888 51.97 301.898 52.42C300.938 52.87 300.098 53.485 299.378 54.265C298.688 55.015 298.148 55.9 297.758 56.92C297.398 57.94 297.218 59.02 297.218 60.16V60.25C297.218 61.39 297.413 62.47 297.803 63.49C298.193 64.51 298.733 65.41 299.423 66.19C300.143 66.97 300.998 67.6 301.988 68.08C302.978 68.53 304.073 68.755 305.273 68.755ZM305.183 76.63C302.753 76.63 300.503 76.21 298.433 75.37C296.363 74.5 294.578 73.33 293.078 71.86C291.578 70.39 290.393 68.665 289.523 66.685C288.683 64.705 288.263 62.59 288.263 60.34V60.25C288.263 58 288.683 55.885 289.523 53.905C290.393 51.895 291.593 50.155 293.123 48.685C294.653 47.185 296.453 46.015 298.523 45.175C300.593 44.305 302.843 43.87 305.273 43.87C307.703 43.87 309.953 44.305 312.023 45.175C314.093 46.015 315.878 47.17 317.378 48.64C318.878 50.11 320.048 51.835 320.888 53.815C321.758 55.795 322.193 57.91 322.193 60.16V60.25C322.193 62.5 321.758 64.63 320.888 66.64C320.048 68.62 318.863 70.36 317.333 71.86C315.803 73.33 314.003 74.5 311.933 75.37C309.863 76.21 307.613 76.63 305.183 76.63ZM335.245 59.98L324.895 44.5H334.93L340.51 53.365L346.135 44.5H355.945L345.595 59.89L356.395 76H346.36L340.33 66.505L334.255 76H324.445L335.245 59.98Z" fill="white"/>
</svg>
